<svg width="24" height="24" viewBox="0 0 24 24" fill="none" xmlns="http://www.w3.org/2000/svg">
<path d="M15.0185 13.953C15.0198 14.1473 14.7908 14.2518 14.6449 14.1234L4.57637 5.26441C4.52782 5.2217 4.5 5.16016 4.5 5.09549V3.225C4.5 3.10073 4.60074 3 4.72501 3L19.275 3.00044C19.3993 3.00045 19.5 3.10118 19.5 3.22544V5.06103C19.5 5.13798 19.4607 5.2096 19.3957 5.25089L15.0833 7.99358C15.0179 8.03517 14.9785 8.10748 14.979 8.18497L15.0185 13.953Z" fill="black"/>
<path d="M8.36565 11.3678C8.36618 11.1778 8.58745 11.0739 8.73395 11.1949L15.0081 16.3781C15.0594 16.4204 15.0893 16.4832 15.0898 16.5496L15.1257 20.7731C15.1267 20.8981 15.0257 21 14.9007 21H12.9951C12.941 21 12.8886 20.9805 12.8477 20.945L8.42773 17.1116C8.37829 17.0687 8.34997 17.0064 8.35015 16.941L8.36565 11.3678Z" fill="black"/>
</svg>
