<svg width="177" height="24" viewBox="0 0 177 24" fill="none" xmlns="http://www.w3.org/2000/svg">
<path d="M15.0185 13.953C15.0198 14.1473 14.7908 14.2518 14.6449 14.1234L4.57637 5.26441C4.52782 5.2217 4.5 5.16016 4.5 5.09549V3.225C4.5 3.10073 4.60074 3 4.72501 3L19.275 3.00044C19.3993 3.00045 19.5 3.10118 19.5 3.22544V5.06103C19.5 5.13798 19.4607 5.2096 19.3957 5.25089L15.0833 7.99358C15.0179 8.03517 14.9785 8.10748 14.979 8.18497L15.0185 13.953Z" fill="white"/>
<path d="M8.36565 11.3678C8.36618 11.1778 8.58745 11.0739 8.73395 11.1949L15.0081 16.3781C15.0594 16.4204 15.0893 16.4832 15.0898 16.5496L15.1257 20.7731C15.1267 20.8981 15.0257 21 14.9007 21H12.9951C12.941 21 12.8886 20.9805 12.8477 20.945L8.42773 17.1116C8.37829 17.0687 8.34997 17.0064 8.35015 16.941L8.36565 11.3678Z" fill="white"/>
<path d="M32.338 19V6.472H35.164V19H32.338ZM28.36 8.758V6.292H39.142V8.758H28.36ZM43.0963 19.198C42.1483 19.198 41.3023 19.006 40.5583 18.622C39.8263 18.226 39.2503 17.68 38.8303 16.984C38.4103 16.288 38.2003 15.502 38.2003 14.626C38.2003 13.75 38.4043 12.97 38.8123 12.286C39.2323 11.59 39.7963 11.044 40.5043 10.648C41.2123 10.252 42.0103 10.054 42.8983 10.054C43.7623 10.054 44.5243 10.24 45.1843 10.612C45.8443 10.984 46.3603 11.5 46.7323 12.16C47.1163 12.82 47.3083 13.576 47.3083 14.428C47.3083 14.584 47.2963 14.752 47.2723 14.932C47.2603 15.1 47.2303 15.298 47.1823 15.526L39.6403 15.544V13.654L46.0123 13.636L44.8243 14.428C44.8123 13.924 44.7343 13.51 44.5903 13.186C44.4463 12.85 44.2303 12.598 43.9423 12.43C43.6663 12.25 43.3243 12.16 42.9163 12.16C42.4843 12.16 42.1063 12.262 41.7823 12.466C41.4703 12.658 41.2243 12.934 41.0443 13.294C40.8763 13.654 40.7923 14.092 40.7923 14.608C40.7923 15.124 40.8823 15.568 41.0623 15.94C41.2543 16.3 41.5183 16.582 41.8543 16.786C42.2023 16.978 42.6103 17.074 43.0783 17.074C43.5103 17.074 43.9003 17.002 44.2483 16.858C44.5963 16.702 44.9023 16.474 45.1663 16.174L46.6783 17.686C46.2463 18.19 45.7243 18.568 45.1123 18.82C44.5003 19.072 43.8283 19.198 43.0963 19.198ZM52.2236 19.216C51.7076 19.216 51.1976 19.15 50.6936 19.018C50.2016 18.886 49.7396 18.7 49.3076 18.46C48.8876 18.208 48.5276 17.92 48.2276 17.596L49.7936 16.012C50.0816 16.324 50.4236 16.57 50.8196 16.75C51.2156 16.918 51.6476 17.002 52.1156 17.002C52.4396 17.002 52.6856 16.954 52.8536 16.858C53.0336 16.762 53.1236 16.63 53.1236 16.462C53.1236 16.246 53.0156 16.084 52.7996 15.976C52.5956 15.856 52.3316 15.754 52.0076 15.67C51.6836 15.574 51.3416 15.472 50.9816 15.364C50.6216 15.256 50.2796 15.106 49.9556 14.914C49.6316 14.722 49.3676 14.458 49.1636 14.122C48.9596 13.774 48.8576 13.336 48.8576 12.808C48.8576 12.244 49.0016 11.758 49.2896 11.35C49.5776 10.93 49.9856 10.6 50.5136 10.36C51.0416 10.12 51.6596 10 52.3676 10C53.1116 10 53.7956 10.132 54.4196 10.396C55.0556 10.648 55.5716 11.026 55.9676 11.53L54.4016 13.114C54.1256 12.79 53.8136 12.562 53.4656 12.43C53.1296 12.298 52.7996 12.232 52.4756 12.232C52.1636 12.232 51.9296 12.28 51.7736 12.376C51.6176 12.46 51.5396 12.586 51.5396 12.754C51.5396 12.934 51.6416 13.078 51.8456 13.186C52.0496 13.294 52.3136 13.39 52.6376 13.474C52.9616 13.558 53.3036 13.66 53.6636 13.78C54.0236 13.9 54.3656 14.062 54.6896 14.266C55.0136 14.47 55.2776 14.746 55.4816 15.094C55.6856 15.43 55.7876 15.874 55.7876 16.426C55.7876 17.278 55.4636 17.956 54.8156 18.46C54.1796 18.964 53.3156 19.216 52.2236 19.216ZM60.8678 19.216C60.3518 19.216 59.8418 19.15 59.3378 19.018C58.8458 18.886 58.3838 18.7 57.9518 18.46C57.5318 18.208 57.1718 17.92 56.8718 17.596L58.4378 16.012C58.7258 16.324 59.0678 16.57 59.4638 16.75C59.8598 16.918 60.2918 17.002 60.7598 17.002C61.0838 17.002 61.3298 16.954 61.4978 16.858C61.6778 16.762 61.7678 16.63 61.7678 16.462C61.7678 16.246 61.6598 16.084 61.4438 15.976C61.2398 15.856 60.9758 15.754 60.6518 15.67C60.3278 15.574 59.9858 15.472 59.6258 15.364C59.2658 15.256 58.9238 15.106 58.5998 14.914C58.2758 14.722 58.0118 14.458 57.8078 14.122C57.6038 13.774 57.5018 13.336 57.5018 12.808C57.5018 12.244 57.6458 11.758 57.9338 11.35C58.2218 10.93 58.6298 10.6 59.1578 10.36C59.6858 10.12 60.3038 10 61.0118 10C61.7558 10 62.4398 10.132 63.0638 10.396C63.6998 10.648 64.2158 11.026 64.6118 11.53L63.0458 13.114C62.7698 12.79 62.4578 12.562 62.1098 12.43C61.7738 12.298 61.4438 12.232 61.1198 12.232C60.8078 12.232 60.5738 12.28 60.4178 12.376C60.2618 12.46 60.1838 12.586 60.1838 12.754C60.1838 12.934 60.2858 13.078 60.4898 13.186C60.6938 13.294 60.9578 13.39 61.2818 13.474C61.6058 13.558 61.9478 13.66 62.3078 13.78C62.6678 13.9 63.0098 14.062 63.3338 14.266C63.6578 14.47 63.9218 14.746 64.1258 15.094C64.3298 15.43 64.4318 15.874 64.4318 16.426C64.4318 17.278 64.1078 17.956 63.4598 18.46C62.8238 18.964 61.9598 19.216 60.8678 19.216ZM69.9799 19.18C69.1759 19.18 68.4559 18.982 67.8199 18.586C67.1959 18.19 66.6979 17.65 66.3259 16.966C65.9659 16.282 65.7859 15.502 65.7859 14.626C65.7859 13.75 65.9659 12.97 66.3259 12.286C66.6979 11.602 67.1959 11.062 67.8199 10.666C68.4559 10.27 69.1759 10.072 69.9799 10.072C70.5679 10.072 71.0959 10.186 71.5639 10.414C72.0439 10.642 72.4339 10.96 72.7339 11.368C73.0339 11.764 73.2019 12.22 73.2379 12.736V16.516C73.2019 17.032 73.0339 17.494 72.7339 17.902C72.4459 18.298 72.0619 18.61 71.5819 18.838C71.1019 19.066 70.5679 19.18 69.9799 19.18ZM70.5379 16.696C71.1259 16.696 71.5999 16.504 71.9599 16.12C72.3199 15.724 72.4999 15.226 72.4999 14.626C72.4999 14.218 72.4159 13.858 72.2479 13.546C72.0919 13.234 71.8639 12.994 71.5639 12.826C71.2759 12.646 70.9399 12.556 70.5559 12.556C70.1719 12.556 69.8299 12.646 69.5299 12.826C69.2419 12.994 69.0079 13.234 68.8279 13.546C68.6599 13.858 68.5759 14.218 68.5759 14.626C68.5759 15.022 68.6599 15.376 68.8279 15.688C68.9959 16 69.2299 16.246 69.5299 16.426C69.8299 16.606 70.1659 16.696 70.5379 16.696ZM72.3919 19V16.642L72.8059 14.518L72.3919 12.394V10.252H75.0919V19H72.3919ZM81.661 19.198C80.761 19.198 79.945 19 79.213 18.604C78.481 18.208 77.905 17.662 77.485 16.966C77.065 16.27 76.855 15.49 76.855 14.626C76.855 13.75 77.065 12.97 77.485 12.286C77.917 11.59 78.499 11.044 79.231 10.648C79.963 10.252 80.785 10.054 81.697 10.054C82.381 10.054 83.005 10.174 83.569 10.414C84.145 10.642 84.655 10.99 85.099 11.458L83.335 13.222C83.131 12.994 82.891 12.826 82.615 12.718C82.351 12.61 82.045 12.556 81.697 12.556C81.301 12.556 80.947 12.646 80.635 12.826C80.335 12.994 80.095 13.234 79.915 13.546C79.747 13.846 79.663 14.2 79.663 14.608C79.663 15.016 79.747 15.376 79.915 15.688C80.095 16 80.341 16.246 80.653 16.426C80.965 16.606 81.313 16.696 81.697 16.696C82.057 16.696 82.375 16.636 82.651 16.516C82.939 16.384 83.185 16.204 83.389 15.976L85.135 17.74C84.679 18.22 84.163 18.586 83.587 18.838C83.011 19.078 82.369 19.198 81.661 19.198ZM87.862 19V6.634H90.616V19H87.862ZM85.882 12.592V10.252H92.596V12.592H85.882Z" fill="white"/>
<path d="M100.197 19V16.516H103.347C104.115 16.516 104.787 16.366 105.363 16.066C105.939 15.754 106.383 15.304 106.695 14.716C107.007 14.128 107.163 13.432 107.163 12.628C107.163 11.824 107.001 11.134 106.677 10.558C106.365 9.982 105.921 9.538 105.345 9.226C104.781 8.914 104.115 8.758 103.347 8.758H100.107V6.292H103.383C104.343 6.292 105.225 6.448 106.029 6.76C106.845 7.06 107.553 7.498 108.153 8.074C108.765 8.638 109.233 9.31 109.557 10.09C109.893 10.858 110.061 11.71 110.061 12.646C110.061 13.57 109.893 14.422 109.557 15.202C109.233 15.982 108.771 16.654 108.171 17.218C107.571 17.782 106.863 18.22 106.047 18.532C105.243 18.844 104.367 19 103.419 19H100.197ZM98.2892 19V6.292H101.115V19H98.2892ZM116.22 19.198C115.32 19.198 114.504 19 113.772 18.604C113.052 18.196 112.482 17.644 112.062 16.948C111.642 16.252 111.432 15.472 111.432 14.608C111.432 13.744 111.642 12.97 112.062 12.286C112.482 11.602 113.052 11.062 113.772 10.666C114.492 10.258 115.308 10.054 116.22 10.054C117.132 10.054 117.948 10.252 118.668 10.648C119.388 11.044 119.958 11.59 120.378 12.286C120.798 12.97 121.008 13.744 121.008 14.608C121.008 15.472 120.798 16.252 120.378 16.948C119.958 17.644 119.388 18.196 118.668 18.604C117.948 19 117.132 19.198 116.22 19.198ZM116.22 16.696C116.616 16.696 116.964 16.612 117.264 16.444C117.564 16.264 117.792 16.018 117.948 15.706C118.116 15.382 118.2 15.016 118.2 14.608C118.2 14.2 118.116 13.846 117.948 13.546C117.78 13.234 117.546 12.994 117.246 12.826C116.958 12.646 116.616 12.556 116.22 12.556C115.836 12.556 115.494 12.646 115.194 12.826C114.894 12.994 114.66 13.234 114.492 13.546C114.324 13.858 114.24 14.218 114.24 14.626C114.24 15.022 114.324 15.382 114.492 15.706C114.66 16.018 114.894 16.264 115.194 16.444C115.494 16.612 115.836 16.696 116.22 16.696ZM127.009 19.198C126.109 19.198 125.293 19 124.561 18.604C123.829 18.208 123.253 17.662 122.833 16.966C122.413 16.27 122.203 15.49 122.203 14.626C122.203 13.75 122.413 12.97 122.833 12.286C123.265 11.59 123.847 11.044 124.579 10.648C125.311 10.252 126.133 10.054 127.045 10.054C127.729 10.054 128.353 10.174 128.917 10.414C129.493 10.642 130.003 10.99 130.447 11.458L128.683 13.222C128.479 12.994 128.239 12.826 127.963 12.718C127.699 12.61 127.393 12.556 127.045 12.556C126.649 12.556 126.295 12.646 125.983 12.826C125.683 12.994 125.443 13.234 125.263 13.546C125.095 13.846 125.011 14.2 125.011 14.608C125.011 15.016 125.095 15.376 125.263 15.688C125.443 16 125.689 16.246 126.001 16.426C126.313 16.606 126.661 16.696 127.045 16.696C127.405 16.696 127.723 16.636 127.999 16.516C128.287 16.384 128.533 16.204 128.737 15.976L130.483 17.74C130.027 18.22 129.511 18.586 128.935 18.838C128.359 19.078 127.717 19.198 127.009 19.198ZM135.294 19.216C134.778 19.216 134.268 19.15 133.764 19.018C133.272 18.886 132.81 18.7 132.378 18.46C131.958 18.208 131.598 17.92 131.298 17.596L132.864 16.012C133.152 16.324 133.494 16.57 133.89 16.75C134.286 16.918 134.718 17.002 135.186 17.002C135.51 17.002 135.756 16.954 135.924 16.858C136.104 16.762 136.194 16.63 136.194 16.462C136.194 16.246 136.086 16.084 135.87 15.976C135.666 15.856 135.402 15.754 135.078 15.67C134.754 15.574 134.412 15.472 134.052 15.364C133.692 15.256 133.35 15.106 133.026 14.914C132.702 14.722 132.438 14.458 132.234 14.122C132.03 13.774 131.928 13.336 131.928 12.808C131.928 12.244 132.072 11.758 132.36 11.35C132.648 10.93 133.056 10.6 133.584 10.36C134.112 10.12 134.73 10 135.438 10C136.182 10 136.866 10.132 137.49 10.396C138.126 10.648 138.642 11.026 139.038 11.53L137.472 13.114C137.196 12.79 136.884 12.562 136.536 12.43C136.2 12.298 135.87 12.232 135.546 12.232C135.234 12.232 135 12.28 134.844 12.376C134.688 12.46 134.61 12.586 134.61 12.754C134.61 12.934 134.712 13.078 134.916 13.186C135.12 13.294 135.384 13.39 135.708 13.474C136.032 13.558 136.374 13.66 136.734 13.78C137.094 13.9 137.436 14.062 137.76 14.266C138.084 14.47 138.348 14.746 138.552 15.094C138.756 15.43 138.858 15.874 138.858 16.426C138.858 17.278 138.534 17.956 137.886 18.46C137.25 18.964 136.386 19.216 135.294 19.216Z" fill="#7C7C7C"/>
</svg>
