<svg width="134" height="24" viewBox="0 0 134 24" fill="none" xmlns="http://www.w3.org/2000/svg">
<path d="M14.5452 13.7197C14.5464 13.8908 14.3447 13.9828 14.2162 13.8698L5.35045 6.069C5.3077 6.03138 5.2832 5.97719 5.2832 5.92025V4.2732C5.2832 4.16377 5.37191 4.07507 5.48133 4.07507L18.2933 4.07546C18.4027 4.07547 18.4914 4.16417 18.4914 4.27359V5.88991C18.4914 5.95767 18.4568 6.02073 18.3996 6.05709L14.6023 8.47216C14.5447 8.50878 14.51 8.57245 14.5105 8.64069L14.5452 13.7197Z" fill="#151518"/>
<path d="M14.5452 13.7197C14.5464 13.8908 14.3447 13.9828 14.2162 13.8698L5.35045 6.069C5.3077 6.03138 5.2832 5.97719 5.2832 5.92025V4.2732C5.2832 4.16377 5.37191 4.07507 5.48133 4.07507L18.2933 4.07546C18.4027 4.07547 18.4914 4.16417 18.4914 4.27359V5.88991C18.4914 5.95767 18.4568 6.02073 18.3996 6.05709L14.6023 8.47216C14.5447 8.50878 14.51 8.57245 14.5105 8.64069L14.5452 13.7197Z" fill="#151518"/>
<path d="M14.5452 13.7197C14.5464 13.8908 14.3447 13.9828 14.2162 13.8698L5.35045 6.069C5.3077 6.03138 5.2832 5.97719 5.2832 5.92025V4.2732C5.2832 4.16377 5.37191 4.07507 5.48133 4.07507L18.2933 4.07546C18.4027 4.07547 18.4914 4.16417 18.4914 4.27359V5.88991C18.4914 5.95767 18.4568 6.02073 18.3996 6.05709L14.6023 8.47216C14.5447 8.50878 14.51 8.57245 14.5105 8.64069L14.5452 13.7197Z" fill="#151518"/>
<path d="M8.68709 11.4433C8.68756 11.276 8.8824 11.1845 9.0114 11.2911L14.5361 15.8551C14.5812 15.8924 14.6075 15.9477 14.608 16.0062L14.6396 19.7251C14.6406 19.8352 14.5516 19.9249 14.4415 19.9249H12.7636C12.7159 19.9249 12.6698 19.9077 12.6338 19.8765L8.74175 16.501C8.69822 16.4632 8.67328 16.4084 8.67344 16.3508L8.68709 11.4433Z" fill="#151518"/>
<path d="M8.68709 11.4433C8.68756 11.276 8.8824 11.1845 9.0114 11.2911L14.5361 15.8551C14.5812 15.8924 14.6075 15.9477 14.608 16.0062L14.6396 19.7251C14.6406 19.8352 14.5516 19.9249 14.4415 19.9249H12.7636C12.7159 19.9249 12.6698 19.9077 12.6338 19.8765L8.74175 16.501C8.69822 16.4632 8.67328 16.4084 8.67344 16.3508L8.68709 11.4433Z" fill="#151518"/>
<path d="M8.68709 11.4433C8.68756 11.276 8.8824 11.1845 9.0114 11.2911L14.5361 15.8551C14.5812 15.8924 14.6075 15.9477 14.608 16.0062L14.6396 19.7251C14.6406 19.8352 14.5516 19.9249 14.4415 19.9249H12.7636C12.7159 19.9249 12.6698 19.9077 12.6338 19.8765L8.74175 16.501C8.69822 16.4632 8.67328 16.4084 8.67344 16.3508L8.68709 11.4433Z" fill="#151518"/>
<path d="M27.8816 7.60375V6.1416H36.8328V7.60375H32.8209L33.2042 7.21147V17.5H31.5103V7.21147L31.8847 7.60375H27.8816ZM40.1893 17.7318C39.4523 17.7318 38.7866 17.5416 38.1922 17.1612C37.5979 16.7808 37.1253 16.2518 36.7747 15.5742C36.4299 14.8967 36.2576 14.1121 36.2576 13.2205C36.2576 12.2755 36.4299 11.4672 36.7747 10.7955C37.1194 10.1179 37.589 9.59786 38.1833 9.23529C38.7777 8.87273 39.4464 8.69145 40.1893 8.69145C40.855 8.69145 41.4256 8.82815 41.9011 9.10156C42.3766 9.36903 42.76 9.73159 43.0512 10.1893C43.3424 10.641 43.5416 11.1551 43.6485 11.7316C43.7615 12.3082 43.7823 12.9026 43.711 13.5148H37.6127V12.534H42.5519L42.1418 12.8015C42.1597 12.4806 42.1418 12.1596 42.0883 11.8386C42.0408 11.5177 41.9457 11.2235 41.803 10.956C41.6604 10.6826 41.4583 10.4656 41.1968 10.3052C40.9412 10.1387 40.6143 10.0555 40.2161 10.0555C39.7168 10.0555 39.2978 10.1803 38.959 10.43C38.6261 10.6796 38.3735 11.0154 38.2012 11.4374C38.0288 11.8535 37.9426 12.3112 37.9426 12.8104V13.4969C37.9426 14.0497 38.0258 14.54 38.1922 14.968C38.3587 15.3959 38.6053 15.7347 38.9322 15.9844C39.2651 16.228 39.6841 16.3499 40.1893 16.3499C40.6826 16.3499 41.0898 16.234 41.4107 16.0022C41.7376 15.7704 41.9397 15.4227 42.017 14.9591H43.7466C43.6575 15.5178 43.4524 16.0052 43.1314 16.4212C42.8105 16.8373 42.3974 17.1612 41.8922 17.393C41.3929 17.6189 40.8253 17.7318 40.1893 17.7318ZM49.3844 17.7318C48.5522 17.7318 47.8509 17.6159 47.2803 17.3841C46.7097 17.1464 46.2728 16.8194 45.9697 16.4034C45.6725 15.9814 45.518 15.4881 45.5061 14.9234H47.102C47.1257 15.4167 47.3219 15.7823 47.6904 16.02C48.0649 16.2578 48.5701 16.3766 49.206 16.3766C49.5448 16.3766 49.8509 16.3231 50.1243 16.2162C50.4037 16.1092 50.6236 15.9636 50.7841 15.7793C50.9505 15.595 51.0337 15.387 51.0337 15.1552C51.0337 14.864 50.9267 14.6351 50.7128 14.4687C50.4988 14.2963 50.1541 14.1448 49.6786 14.014L47.9222 13.4167C47.2208 13.1789 46.6829 12.8639 46.3085 12.4716C45.934 12.0734 45.7468 11.5979 45.7468 11.0451C45.7468 10.3378 46.0618 9.77023 46.6919 9.34228C47.3219 8.90839 48.157 8.69145 49.1971 8.69145C50.2729 8.69145 51.1021 8.92028 51.6846 9.37794C52.273 9.82966 52.5791 10.3973 52.6029 11.0808H50.9713C50.9297 10.742 50.7603 10.4835 50.4631 10.3052C50.1719 10.1209 49.7499 10.0288 49.1971 10.0288C48.68 10.0288 48.2729 10.1417 47.9757 10.3676C47.6845 10.5934 47.5388 10.849 47.5388 11.1343C47.5388 11.6455 47.9787 12.0259 48.8583 12.2755L50.7039 12.9263C51.4052 13.1522 51.9461 13.4434 52.3265 13.8001C52.7069 14.1567 52.8971 14.6084 52.8971 15.1552C52.8971 15.595 52.7515 16.0111 52.4602 16.4034C52.169 16.7957 51.7589 17.1166 51.2299 17.3663C50.7068 17.61 50.0916 17.7318 49.3844 17.7318ZM58.6215 17.7318C57.7893 17.7318 57.088 17.6159 56.5174 17.3841C55.9468 17.1464 55.5099 16.8194 55.2068 16.4034C54.9096 15.9814 54.7551 15.4881 54.7432 14.9234H56.3391C56.3629 15.4167 56.559 15.7823 56.9275 16.02C57.302 16.2578 57.8072 16.3766 58.4431 16.3766C58.7819 16.3766 59.088 16.3231 59.3614 16.2162C59.6408 16.1092 59.8607 15.9636 60.0212 15.7793C60.1876 15.595 60.2708 15.387 60.2708 15.1552C60.2708 14.864 60.1638 14.6351 59.9499 14.4687C59.7359 14.2963 59.3912 14.1448 58.9157 14.014L57.1593 13.4167C56.458 13.1789 55.92 12.8639 55.5456 12.4716C55.1711 12.0734 54.9839 11.5979 54.9839 11.0451C54.9839 10.3378 55.2989 9.77023 55.929 9.34228C56.559 8.90839 57.3941 8.69145 58.4342 8.69145C59.51 8.69145 60.3392 8.92028 60.9217 9.37794C61.5101 9.82966 61.8162 10.3973 61.84 11.0808H60.2084C60.1668 10.742 59.9974 10.4835 59.7002 10.3052C59.409 10.1209 58.987 10.0288 58.4342 10.0288C57.9171 10.0288 57.51 10.1417 57.2128 10.3676C56.9216 10.5934 56.7759 10.849 56.7759 11.1343C56.7759 11.6455 57.2158 12.0259 58.0954 12.2755L59.941 12.9263C60.6423 13.1522 61.1832 13.4434 61.5636 13.8001C61.944 14.1567 62.1342 14.6084 62.1342 15.1552C62.1342 15.595 61.9886 16.0111 61.6973 16.4034C61.4061 16.7957 60.996 17.1166 60.467 17.3663C59.9439 17.61 59.3288 17.7318 58.6215 17.7318ZM70.0964 17.5L69.8824 15.5297V11.9545C69.8824 11.2532 69.7368 10.745 69.4455 10.43C69.1543 10.109 68.6936 9.94854 68.0636 9.94854C67.707 9.94854 67.389 10.002 67.1097 10.109C66.8362 10.2101 66.6193 10.3646 66.4588 10.5726C66.3043 10.7807 66.227 11.0422 66.227 11.3572H64.3548C64.3548 10.7272 64.5093 10.216 64.8184 9.82372C65.1274 9.43144 65.5583 9.14614 66.1111 8.96783C66.6698 8.78357 67.3207 8.69145 68.0636 8.69145C68.759 8.69145 69.3712 8.80735 69.9002 9.03915C70.4292 9.26501 70.8393 9.62163 71.1306 10.109C71.4277 10.5964 71.5763 11.2264 71.5763 11.9991V17.5H70.0964ZM67.2256 17.7318C66.5064 17.7318 65.909 17.607 65.4335 17.3574C64.958 17.1018 64.6014 16.7689 64.3637 16.3588C64.1319 15.9487 64.016 15.5118 64.016 15.0482C64.016 14.4836 64.1586 14.02 64.4439 13.6574C64.7351 13.2889 65.1363 13.0155 65.6475 12.8372C66.1587 12.6589 66.7471 12.5697 67.4128 12.5697C67.8704 12.5697 68.3162 12.6113 68.7501 12.6945C69.184 12.7777 69.6119 12.8877 70.034 13.0244V14.0497C69.6892 13.9249 69.3058 13.8268 68.8838 13.7555C68.4678 13.6782 68.0785 13.6396 67.7159 13.6396C67.175 13.6396 66.7233 13.7466 66.3607 13.9605C65.9982 14.1745 65.8169 14.5371 65.8169 15.0482C65.8169 15.4227 65.9595 15.7466 66.2448 16.02C66.5301 16.2875 66.9819 16.4212 67.6 16.4212C68.0517 16.4212 68.45 16.3202 68.7947 16.1181C69.1394 15.9101 69.4069 15.6515 69.5971 15.3424C69.7873 15.0334 69.8824 14.7243 69.8824 14.4152H70.2925C70.2925 15.0096 70.1707 15.5594 69.927 16.0646C69.6892 16.5639 69.3415 16.968 68.8838 17.2771C68.4262 17.5802 67.8734 17.7318 67.2256 17.7318ZM77.7744 17.7318C77.073 17.7318 76.4192 17.5446 75.8129 17.1701C75.2067 16.7957 74.7193 16.2697 74.3508 15.5921C73.9823 14.9145 73.798 14.118 73.798 13.2027C73.798 12.2398 73.9823 11.4255 74.3508 10.7599C74.7193 10.0882 75.2067 9.57706 75.8129 9.22638C76.4192 8.86976 77.073 8.69145 77.7744 8.69145C78.2915 8.69145 78.7521 8.77466 79.1563 8.94108C79.5604 9.10156 79.9081 9.32148 80.1994 9.60083C80.4906 9.87424 80.7254 10.1833 80.9037 10.528C81.088 10.8728 81.2158 11.2294 81.2871 11.5979L79.5664 11.6871C79.4416 11.2413 79.2216 10.8847 78.9066 10.6172C78.5976 10.3438 78.2142 10.2071 77.7565 10.2071C77.3702 10.2071 77.0047 10.317 76.6599 10.537C76.3211 10.7509 76.0447 11.0808 75.8308 11.5266C75.6227 11.9664 75.5187 12.5251 75.5187 13.2027C75.5187 13.8327 75.6168 14.3706 75.8129 14.8164C76.0091 15.2622 76.2765 15.604 76.6153 15.8417C76.9541 16.0795 77.3345 16.1983 77.7565 16.1983C78.3628 16.1983 78.8145 16.0527 79.1117 15.7615C79.4148 15.4643 79.5664 15.0571 79.5664 14.54H81.2871C81.2871 15.1404 81.1474 15.6812 80.8681 16.1627C80.5887 16.6441 80.1845 17.0275 79.6555 17.3128C79.1325 17.5921 78.5054 17.7318 77.7744 17.7318ZM86.5589 17.7318C86.0715 17.7318 85.6316 17.6397 85.2394 17.4554C84.8471 17.2712 84.535 16.9948 84.3032 16.6263C84.0774 16.2518 83.9644 15.7823 83.9644 15.2176V6.58738H85.6495V15.1641C85.6495 15.9725 86.0269 16.3766 86.7817 16.3766C87.0136 16.3766 87.2394 16.3529 87.4593 16.3053C87.6792 16.2518 87.9289 16.1746 88.2082 16.0735L88.449 17.2771C88.1339 17.4079 87.8219 17.5149 87.5128 17.5981C87.2097 17.6872 86.8917 17.7318 86.5589 17.7318ZM82.6539 10.0734V8.92325H88.1904V10.0734H82.6539Z" fill="#151518"/>
<path d="M94.7034 6.1416H98.1805C99.3336 6.1416 100.335 6.37638 101.185 6.84593C102.041 7.30954 102.707 7.96631 103.182 8.81626C103.658 9.66621 103.895 10.6677 103.895 11.8208C103.895 12.9679 103.658 13.9665 103.182 14.8164C102.707 15.6664 102.041 16.3261 101.185 16.7957C100.335 17.2652 99.3336 17.5 98.1805 17.5H94.7034V6.1416ZM96.3974 7.66616V16.0022H98.1805C98.9888 16.0022 99.6813 15.8209 100.258 15.4583C100.84 15.0958 101.289 14.5995 101.604 13.9694C101.919 13.3394 102.077 12.6232 102.077 11.8208C102.077 11.0184 101.919 10.3052 101.604 9.68107C101.289 9.05104 100.84 8.55771 100.258 8.20109C99.6813 7.84447 98.9888 7.66616 98.1805 7.66616H96.3974ZM109.763 17.7318C108.984 17.7318 108.286 17.5624 107.667 17.2236C107.055 16.8848 106.571 16.3796 106.214 15.708C105.858 15.0363 105.679 14.2072 105.679 13.2205C105.679 12.2161 105.858 11.381 106.214 10.7153C106.571 10.0436 107.055 9.53842 107.667 9.19963C108.286 8.86084 108.984 8.69145 109.763 8.69145C110.529 8.69145 111.219 8.86084 111.831 9.19963C112.443 9.53842 112.925 10.0436 113.275 10.7153C113.632 11.381 113.81 12.2161 113.81 13.2205C113.81 14.2072 113.632 15.0363 113.275 15.708C112.925 16.3796 112.443 16.8848 111.831 17.2236C111.219 17.5624 110.529 17.7318 109.763 17.7318ZM109.709 16.2518C110.202 16.2518 110.627 16.133 110.984 15.8952C111.347 15.6575 111.623 15.3127 111.813 14.861C112.009 14.4033 112.107 13.8565 112.107 13.2205C112.107 12.2458 111.908 11.4909 111.51 10.956C111.118 10.4211 110.55 10.1536 109.807 10.1536C109.308 10.1536 108.877 10.2754 108.514 10.5191C108.158 10.7569 107.881 11.1046 107.685 11.5622C107.495 12.014 107.4 12.5667 107.4 13.2205C107.4 14.1775 107.599 14.9234 107.997 15.4583C108.395 15.9873 108.966 16.2518 109.709 16.2518ZM119.398 17.7318C118.696 17.7318 118.042 17.5446 117.436 17.1701C116.83 16.7957 116.343 16.2697 115.974 15.5921C115.606 14.9145 115.421 14.118 115.421 13.2027C115.421 12.2398 115.606 11.4255 115.974 10.7599C116.343 10.0882 116.83 9.57706 117.436 9.22638C118.042 8.86976 118.696 8.69145 119.398 8.69145C119.915 8.69145 120.375 8.77466 120.78 8.94108C121.184 9.10156 121.531 9.32148 121.823 9.60083C122.114 9.87424 122.349 10.1833 122.527 10.528C122.711 10.8728 122.839 11.2294 122.91 11.5979L121.19 11.6871C121.065 11.2413 120.845 10.8847 120.53 10.6172C120.221 10.3438 119.837 10.2071 119.38 10.2071C118.993 10.2071 118.628 10.317 118.283 10.537C117.944 10.7509 117.668 11.0808 117.454 11.5266C117.246 11.9664 117.142 12.5251 117.142 13.2027C117.142 13.8327 117.24 14.3706 117.436 14.8164C117.632 15.2622 117.9 15.604 118.239 15.8417C118.577 16.0795 118.958 16.1983 119.38 16.1983C119.986 16.1983 120.438 16.0527 120.735 15.7615C121.038 15.4643 121.19 15.0571 121.19 14.54H122.91C122.91 15.1404 122.771 15.6812 122.491 16.1627C122.212 16.6441 121.808 17.0275 121.279 17.3128C120.756 17.5921 120.129 17.7318 119.398 17.7318ZM128.565 17.7318C127.733 17.7318 127.032 17.6159 126.461 17.3841C125.891 17.1464 125.454 16.8194 125.151 16.4034C124.854 15.9814 124.699 15.4881 124.687 14.9234H126.283C126.307 15.4167 126.503 15.7823 126.872 16.02C127.246 16.2578 127.751 16.3766 128.387 16.3766C128.726 16.3766 129.032 16.3231 129.305 16.2162C129.585 16.1092 129.805 15.9636 129.965 15.7793C130.132 15.595 130.215 15.387 130.215 15.1552C130.215 14.864 130.108 14.6351 129.894 14.4687C129.68 14.2963 129.335 14.1448 128.86 14.014L127.103 13.4167C126.402 13.1789 125.864 12.8639 125.49 12.4716C125.115 12.0734 124.928 11.5979 124.928 11.0451C124.928 10.3378 125.243 9.77023 125.873 9.34228C126.503 8.90839 127.338 8.69145 128.378 8.69145C129.454 8.69145 130.283 8.92028 130.866 9.37794C131.454 9.82966 131.76 10.3973 131.784 11.0808H130.152C130.111 10.742 129.941 10.4835 129.644 10.3052C129.353 10.1209 128.931 10.0288 128.378 10.0288C127.861 10.0288 127.454 10.1417 127.157 10.3676C126.866 10.5934 126.72 10.849 126.72 11.1343C126.72 11.6455 127.16 12.0259 128.039 12.2755L129.885 12.9263C130.586 13.1522 131.127 13.4434 131.508 13.8001C131.888 14.1567 132.078 14.6084 132.078 15.1552C132.078 15.595 131.933 16.0111 131.641 16.4034C131.35 16.7957 130.94 17.1166 130.411 17.3663C129.888 17.61 129.273 17.7318 128.565 17.7318Z" fill="#5B5B67"/>
</svg>
